<?xml version="1.0" encoding="utf-8"?>
<!-- Generator: Adobe Illustrator 15.0.2, SVG Export Plug-In . SVG Version: 6.00 Build 0)  -->
<!DOCTYPE svg PUBLIC "-//W3C//DTD SVG 1.1//EN" "http://www.w3.org/Graphics/SVG/1.1/DTD/svg11.dtd">
<svg version="1.1" id="Layer_1" xmlns="http://www.w3.org/2000/svg" xmlns:xlink="http://www.w3.org/1999/xlink" x="0px" y="0px"
	 width="205px" height="59px" viewBox="0 0 205 59" enable-background="new 0 0 205 59" xml:space="preserve">
<path fill="#4A4A4A" d="M14.501,5.393c-0.137,0.137-0.218,0.319-0.218,0.719v19.352c0,0.371-0.101,0.654-0.312,0.865
	c-0.195,0.195-0.522,0.27-0.841,0.27h-2.705c-0.341,0-0.644-0.085-0.818-0.26c-0.207-0.207-0.261-0.507-0.261-0.875V6.085
	c0-0.286-0.044-0.515-0.211-0.682C8.961,5.229,8.698,5.182,8.379,5.182H1.329c-0.239,0-0.492-0.032-0.634-0.174
	C0.546,4.859,0.5,4.623,0.5,4.411V1.64c0-0.216,0.062-0.381,0.213-0.514c0.148-0.129,0.403-0.16,0.63-0.16h21.008
	c0.234,0,0.454,0.066,0.564,0.177C23,1.228,23.129,1.368,23.129,1.654v2.742c0,0.22-0.062,0.398-0.216,0.552
	c-0.138,0.138-0.328,0.233-0.579,0.233h-7.021C14.845,5.182,14.653,5.242,14.501,5.393 M49.976,26.328
	c-0.231-0.161-0.422-0.44-0.571-0.866l-1.001-2.855c-0.186-0.589-0.368-0.829-0.616-1.001c-0.278-0.193-0.771-0.247-1.374-0.247
	h-7.022c-0.495,0-0.897,0.06-1.154,0.235c-0.278,0.189-0.482,0.468-0.652,0.933l-1.03,2.936c-0.105,0.293-0.23,0.628-0.535,0.865
	c-0.264,0.205-0.672,0.27-1.213,0.27h-2.495c-0.466,0-0.721-0.049-0.882-0.27c-0.17-0.233-0.104-0.597,0.014-0.865l8.423-23.398
	c0.145-0.347,0.282-0.748,0.631-0.928c0.25-0.13,0.467-0.17,0.875-0.17h3.289c0.5,0,0.933,0.018,1.14,0.16
	c0.341,0.235,0.432,0.557,0.613,0.937l8.604,23.4c0.137,0.336,0.167,0.659-0.014,0.864c-0.167,0.189-0.423,0.27-0.74,0.27h-3.23
	C50.55,26.598,50.194,26.479,49.976,26.328 M43.504,8.605c-0.192-0.531-0.307-0.7-0.583-0.7c-0.238,0-0.367,0.164-0.564,0.716
	l-2.667,7.619c-0.144,0.404-0.144,0.7-0.017,0.878c0.121,0.171,0.419,0.229,0.755,0.229h5.005c0.251-0.013,0.543-0.003,0.736-0.237
	c0.181-0.22,0.159-0.527,0.072-0.842L43.504,8.605z M133.165,0.589c-7.775,0-12.646,4.929-12.646,13.2
	c0,8.271,4.871,13.271,12.646,13.271c7.71,0,12.661-5,12.661-13.271C145.826,5.518,140.875,0.589,133.165,0.589 M133.181,22.812
	c-4.583,0-7.28-3.532-7.28-9.001c0-5.468,2.697-8.975,7.28-8.975c4.584,0,7.265,3.5,7.265,8.97
	C140.445,19.275,137.765,22.812,133.181,22.812 M158.982,1.194c0.356-0.213,0.643-0.253,1.112-0.317
	c1.204-0.162,3.685-0.191,6.107-0.062c5.753,0.304,9.344,2.265,9.344,7.315c0,2.869-0.938,4.83-3.369,6.251
	c-0.515,0.301-0.723,0.577-0.723,0.885c0,0.376,0.296,0.795,0.979,1.935c1.041,1.737,3.721,6.029,4.86,7.953
	c0.346,0.585,0.465,0.887,0.363,1.16c-0.092,0.245-0.391,0.352-0.974,0.394c-0.613,0.045-1.912,0.037-2.725-0.07
	c-0.699-0.092-1.186-0.315-1.596-0.676c-0.466-0.408-0.943-1.101-1.332-1.736c-1.104-1.806-2.464-4.355-3.388-5.903
	c-0.469-0.783-0.935-1.479-1.812-1.877c-0.625-0.284-1.101-0.267-1.469-0.267c-0.263,0.032-0.478,0.035-0.697,0.255
	c-0.152,0.153-0.215,0.369-0.215,0.895v8.149c0,0.371-0.101,0.655-0.312,0.866c-0.195,0.195-0.523,0.271-0.842,0.271h-2.705
	c-0.341,0-0.643-0.086-0.817-0.26c-0.207-0.207-0.261-0.508-0.261-0.876V2.215C158.514,1.793,158.689,1.37,158.982,1.194
	 M165.779,4.82c-0.845,0-1.663,0.006-1.988,0.295c-0.22,0.194-0.318,0.584-0.318,0.959v5.011c0,0.495,0.077,0.836,0.374,1.023
	c0.379,0.238,1.051,0.256,1.811,0.256c3.15,0,4.715-1.447,4.715-3.841C170.372,6.056,168.893,4.82,165.779,4.82 M97.398,26.328
	c0.155,0.155,0.44,0.27,0.908,0.27h11.126c2.532,0,3.237-0.27,3.77-0.731c0.583-0.504,0.827-1.972,0.925-2.456
	c0.073-0.371,0.116-0.733-0.028-0.873c-0.139-0.132-0.297-0.159-0.946-0.159h-10.007c-0.369,0-0.672-0.012-0.839-0.179
	c-0.176-0.176-0.224-0.385-0.224-0.839l0.007-19.3c0-0.367-0.054-0.667-0.261-0.875c-0.174-0.174-0.477-0.26-0.818-0.26h-2.705
	c-0.319,0-0.646,0.075-0.841,0.271c-0.211,0.21-0.312,0.495-0.312,0.864l-0.007,23.401C97.145,25.844,97.224,26.154,97.398,26.328
	 M78.257,16.036l7.037-13.944c0.151-0.268,0.268-0.632,0.135-0.865c-0.125-0.222-0.366-0.271-0.818-0.271h-2.852
	c-0.526,0-0.931,0.065-1.217,0.271c-0.329,0.236-0.498,0.571-0.641,0.865l-4.042,8.847c-0.263,0.623-0.562,1.161-0.914,1.161
	c-0.317,0-0.573-0.544-0.873-1.146l-4.112-8.862c-0.144-0.293-0.312-0.628-0.642-0.865c-0.286-0.206-0.691-0.271-1.217-0.271h-2.852
	c-0.452,0-0.692,0.049-0.819,0.271c-0.132,0.232-0.017,0.597,0.135,0.865l7.17,14.077c0.386,0.778,0.689,1.486,0.689,2.436
	l-0.007,6.86c0,0.367,0.054,0.667,0.26,0.875c0.175,0.174,0.478,0.26,0.818,0.26h2.705c0.319,0,0.646-0.075,0.841-0.27
	c0.21-0.21,0.312-0.495,0.312-0.864l0.008-6.89C77.364,17.665,77.899,16.809,78.257,16.036 M158.513,47.399
	c-0.232-0.026-0.743,0.325-1.413,0.627c-0.898,0.405-1.541,0.575-2.356,0.587c-0.857,0.012-1.82-0.103-2.595-0.857
	c-0.213-0.207-0.467-0.538-0.617-0.808c-0.191-0.344-0.419-0.712-0.619-0.726c-0.251-0.017-0.529,0.304-0.918,0.604
	c-0.204,0.155-0.818,0.72-1.485,0.777c-0.475,0.04-0.936-0.104-1.362-0.395c-0.513-0.348-0.904-0.744-1.33-1.2
	c-0.411-0.44-0.758-0.826-1.207-1.232c-0.382-0.344-0.784-0.438-1.092-0.429c-1.095,0.034-1.949,1.381-2.386,2.281
	c-0.337,0.698-0.573,1.437-1.055,1.589c-0.403,0.126-0.693-0.038-0.852-0.431c-0.205-0.507,0.02-1.295,0.075-1.527
	c0.154-0.622,0.286-1.311,0.171-1.905c-0.093-0.482-0.341-1.139,0.237-1.332c0.57-0.188,1.006,0.403,1.216,0.897
	c0.301,0.711,0.623,0.469,1.045,0.14c0.649-0.505,1.29-0.898,2.062-0.898c0.957,0,1.438,0.416,2.227,1.207
	c0.688,0.692,1.588,1.787,2.541,1.787c0.986,0,2.103-1.539,2.893-2.415c0.431-0.479,0.927-0.833,1.439-0.833
	c0.549,0,1.044,0.392,1.242,0.828c0.224,0.494-0.063,1.009-0.65,1.001c-0.226-0.004-0.398-0.192-0.637-0.08
	c-0.265,0.123-0.333,0.381-0.366,0.574c-0.07,0.421,0.036,1.1,0.414,1.543c0.594,0.7,1.34,0.705,1.955,0.712
	c0.666,0.008,1.38-0.192,1.974-0.448c0.427-0.184,0.879-0.399,1.045-0.58c0,0-0.176-0.635-0.185-1.479
	c-0.006-0.571,0.052-1.097,0.253-1.708c0.386-1.167,1.209-2.185,2.241-2.153c0.26,0.008,0.525,0.105,0.785,0.325
	c0.589,0.499,0.747,1.185,0.673,1.875c-0.098,0.901-0.549,1.817-0.979,2.321c-0.184,0.215-0.331,0.368-0.561,0.626
	c-0.178,0.201-0.245,0.349-0.145,0.583c0.268,0.625,0.741,1.023,1.252,1.234c0.614,0.253,1.359,0.263,2.087-0.051
	c0.558-0.241,1.023-0.697,1.151-0.896c0.111,0.394-0.111,0.912-0.42,1.305c-0.436,0.552-1.263,0.988-2.441,0.913
	c-0.65-0.042-1.195-0.212-1.682-0.492C159.006,48.209,158.871,47.44,158.513,47.399 M160.518,44.251
	c0.434-0.84,0.53-1.685,0.256-1.867c-0.185-0.123-0.453-0.026-0.643,0.148c-0.223,0.205-0.39,0.486-0.5,0.778
	c-0.225,0.596-0.363,1.568-0.108,2.159C159.522,45.47,160.106,45.051,160.518,44.251 M10.849,55.302
	c-0.348-0.062-0.591-0.418-0.591-0.418c-0.034-0.831,0.064-2.446,0.225-3.685c0.23-1.775,0.901-5.45,1.195-6.778
	c0.098-0.444,0.132-0.562,0.224-1.009c0.023-0.119,0.051-0.296-0.042-0.349c-0.091-0.052-0.164-0.002-0.231,0.031
	c-0.568,0.282-0.827,0.453-1.331,0.659l-0.624,0.226c-0.212,0.093-0.229,0.321-0.231,0.635c-0.003,0.597-0.21,2.219-1.157,3.17
	c-0.621,0.625-1.545,1.056-2.575,0.681c-0.918-0.335-1.318-1.362-1.408-2.184c-0.123-1.123,0.172-2.257,0.86-3.094
	c0.417-0.507,0.614-0.678,0.829-1.133c0.211-0.448,0.66-0.663,1.15-0.682c0.451-0.019,0.935,0.129,1.299,0.407
	c0.247,0.188,0.526,0.461,0.682,0.727c0.089,0.15,0.217,0.119,0.283,0.119c0.97-0.185,1.963-0.417,2.708-1.063
	c0.121-0.104,0.167-0.329,0.21-0.546c0,0,0.462-2.293,0.686-3.341c0.095-0.443,0.237-0.939,0.406-1.317
	c0.111-0.248,0.343-0.591,0.68-0.617c0.027-0.002,0.255,0.009,0.383,0.124c0.247,0.226,0.331,0.69,0.356,1.019
	c0.051,0.672,0.003,1.206-0.172,1.957c-0.113,0.48-0.268,0.938-0.479,1.438c-0.19,0.45-0.717,1.951-0.947,2.922
	c-0.275,1.165-0.567,2.319-0.781,3.511c-0.056,0.312-0.12,0.628-0.169,0.942c0.207-0.049,0.412-0.098,0.617-0.146
	c1.301-0.311,2.758-0.509,3.903-0.575c0.383-0.021,0.738-0.024,1.165,0.002l0.3,0.027c0.038,0.065,0.044,0.302-0.051,0.396
	c-0.157,0.16-0.252,0.16-0.521,0.24c-0.195,0.059-1.454,0.261-2.544,0.497c-1.105,0.239-2.116,0.443-2.816,0.932
	c-0.221,0.154-0.365,0.371-0.455,0.63c-0.213,0.621-0.498,2.424-0.562,3.604c-0.011,0.203-0.05,0.842-0.047,0.939
	C11.312,55.345,11.054,55.339,10.849,55.302 M6.723,43.651c-0.094,0-0.219,0.116-0.245,0.146C5.906,44.46,5.575,45.96,6.055,46.87
	c0.155,0.293,0.369,0.371,0.534,0.393c0.383,0.05,0.735-0.185,0.962-0.416c0.575-0.585,0.847-1.579,0.857-2.444
	c0-0.106,0.011-0.393-0.179-0.418c-0.104-0.014-0.383-0.018-0.383-0.018c-0.359,0.018-0.621-0.079-0.802-0.177
	C6.941,43.735,6.848,43.651,6.723,43.651 M181.927,40.617c-0.11-0.799-0.427-1.388-0.978-1.675
	c-0.359-0.187-0.857-0.265-1.573-0.126c-0.675,0.131-1.36,0.482-1.813,0.829c-0.417,0.32-0.827,0.798-0.996,1.431
	c-0.212,0.798,0.04,1.129-0.212,1.285c-0.383,0.238-0.717-0.719-0.722-1.208c-0.004-0.414,0.077-0.829,0.271-1.169
	c0.63-1.101,2.048-1.826,3.195-2.019c1.308-0.219,2.265-0.099,3.128,0.729c0.354,0.34,0.561,0.734,0.686,1.147
	c0.21,0.688,0.242,1.559,0.031,2.214c-0.35,1.09-0.778,1.507-1.511,2.353c-0.201,0.232-0.575,0.624-0.601,0.852
	c-0.024,0.222,0.084,0.46,0.273,0.906c0.254,0.596,0.5,1.151,0.521,1.903c0.03,1.01-0.47,1.848-1.123,2.322
	c-0.334,0.243-0.785,0.415-1.216,0.484c-0.718,0.117-1.494,0.025-2.164-0.466c-0.412-0.302-0.665-0.699-0.783-1.059
	c-0.194-0.598-0.086-1.27,0.152-1.834c0.249-0.594,0.676-1.066,0.903-1.296c0.472-0.478,1.05-0.908,1.05-0.908
	c-0.358-0.474-0.826-1.345-0.984-1.9c-0.175-0.615-0.176-1.24,0.106-1.783c0.188-0.359,0.563-0.629,0.712-0.609
	c0.244,0.032,0.13,0.407,0.213,0.901c0.096,0.578,0.412,1.237,0.826,1.794c0.182,0.243,0.446,0.495,0.635,0.465
	c0.273-0.044,0.615-0.368,0.862-0.658C181.648,42.541,182.037,41.393,181.927,40.617 M178.634,50.185
	c0.899-0.109,1.447-0.824,1.379-1.65c-0.106-1.309-1.028-2.364-1.028-2.364c-0.545,0.341-1.375,1.18-1.556,2.079
	c-0.058,0.284-0.072,0.757,0.046,1.116C177.631,49.842,178.059,50.255,178.634,50.185 M129.486,42.938
	c0.037,0.321,0.214,0.571,0.729,0.45c0.488-0.114,0.645-0.565,0.575-0.999c-0.062-0.397-0.38-0.904-0.681-1.189
	c-0.371-0.354-0.797-0.477-1.216-0.456c-0.698,0.035-1.379,0.476-1.759,0.938c-0.445,0.538-0.763,1.334-0.641,2.1
	c0.056,0.358,0.228,0.693,0.487,1.024c0.345,0.439,0.922,0.925,1.416,1.384c0.186,0.172,0.403,0.418,0.441,0.655
	c0.055,0.344-0.094,0.525-0.244,0.657c-0.306,0.264-0.856,0.265-1.326,0.273c-0.487,0.008-0.966,0.277-0.798,0.839
	c0.167,0.556,0.714,0.749,1.284,0.759c0.5,0.008,1.016-0.125,1.31-0.278c0.556-0.293,0.942-0.726,1.33-1.2
	c0.478-0.584,0.774-0.849,1.249-1.219c0.694-0.543,1.86-1.359,2.43-1.683c0.269-0.152,0.536-0.289,0.653-0.216
	c0.159,0.103,0.056,0.51,0.02,0.794c-0.034,0.287-0.056,0.401-0.091,0.687c-0.071,0.565,0.007,1.202,0.181,1.657
	c0.088,0.231,0.376,0.612,0.566,0.583c0.274-0.042,0.209-0.305,0.197-0.461c-0.052-0.793,0.136-1.764,0.577-2.739
	c0.18-0.396,0.328-0.816,0.448-1.241c0.12-0.431,0.162-0.995-0.191-1.408c-0.209-0.245-0.346-0.333-0.556-0.315
	c-0.209,0.017-0.406,0.137-0.569,0.312c-0.792,0.854-1.651,1.591-2.615,2.265c-0.487,0.339-0.949,0.65-1.479,0.932
	c-0.272,0.144-0.562,0.37-0.892,0.271c-0.182-0.055-0.393-0.276-0.689-0.529c-0.746-0.637-1.943-1.472-1.688-2.49
	c0.095-0.378,0.302-0.637,0.572-0.882c0.286-0.259,0.635-0.323,0.834-0.16C129.55,42.212,129.448,42.611,129.486,42.938
	 M197.768,48.982c-2.438,0.156-3.305-1.221-3.567-1.671c-0.857-1.475-0.771-3.05-0.327-4.44c0.393-1.232,1.423-2.409,2.363-3.153
	c0.754-0.599,1.476-1.002,2.248-1.374c1.251-0.604,2.89-1.164,3.007-0.812c0.085,0.25-0.714,0.304-2.349,1.277
	c-0.974,0.581-1.859,1.384-2.459,2.151c-0.591,0.761-1.187,1.953-1.305,3.292c-0.041,0.47-0.013,1.145,0.126,1.628
	c0.266-0.359,0.609-0.712,0.983-1.048c1.011-0.904,2.389-1.57,3.693-1.53c0.824,0.026,1.595,0.416,1.784,1.468
	c0.198,1.095-0.284,2.038-0.97,2.769C200.426,48.144,199.312,48.884,197.768,48.982 M198.031,47.979
	c1.146-0.106,2.057-0.865,2.493-1.822c0.189-0.413,0.218-0.837,0.113-1.178c-0.146-0.478-0.59-0.782-1.355-0.632
	c-0.916,0.182-2.004,0.878-2.576,1.6c-0.188,0.235-0.657,0.727-0.487,1.153C196.474,47.738,197.147,48.062,198.031,47.979
	 M187.827,40.161c0.274,0.159-0.231,0.587-0.163,1.534c0.028,0.425,0.083,0.657,0.249,1.017c0.122,0.263,0.354,0.687,0.592,0.627
	c0.354-0.091,0.844-0.552,1.165-0.896c0.965-1.038,1.256-1.862,0.85-2.988c-0.371-1.029-1.724-0.818-2.289-0.662
	c-0.708,0.195-1.42,0.532-1.866,0.773c-0.555,0.303-1.037,0.545-1.158,0.373c-0.357-0.666,1.248-1.743,3.03-2.037
	c2.109-0.346,3.582,1.076,3.372,2.716c-0.183,1.426-0.996,2.351-1.925,3.232c-0.585,0.556-0.228,0.871,0.24,1.58
	c0.467,0.708,0.672,1.499,0.669,2.272c-0.005,1.376-0.834,2.756-2.641,2.832c-1.115,0.047-2.024-0.76-2.388-1.696
	c-0.188-0.488-0.256-1.046-0.095-1.595c0.258-0.883,1.213-1.817,1.747-2.385c0,0-0.488-0.785-0.731-1.351
	c-0.51-1.187-0.551-2.286,0.671-3.105C187.38,40.253,187.664,40.067,187.827,40.161 M189.015,48.442
	c-0.002-0.962-0.514-1.951-1.209-2.736c0,0-1.063,0.826-1.315,1.879c-0.11,0.453-0.095,0.891,0.046,1.253
	c0.188,0.483,0.611,0.884,1.289,0.898C188.528,49.752,189.016,49.173,189.015,48.442 M172.568,38.927
	c-0.422-0.142-0.859-0.16-0.972,0.282c-0.15,0.589-0.286,2.123-0.354,2.765c-0.172,1.635-0.3,3.334-0.033,5.03
	c0.051,0.327,0.415,1.969,0.913,2.052c0.109,0.019,0.254-0.096,0.254-0.217c0.007-1.792,0.214-3.568,0.368-4.971
	c0.079-0.719,0.233-1.726,0.363-2.42c0.125-0.673,0.32-1.336,0.153-1.887C173.149,39.2,172.752,38.987,172.568,38.927
	 M137.604,38.654c0.252-0.36,0.344-0.79,0.296-1.469c-0.029-0.424-0.207-0.85-0.624-1.059c-0.348-0.172-0.88-0.119-1.069,0.204
	c-0.123,0.207-0.178,0.381-0.094,0.806c0.052,0.26,0.207,0.745,0.193,0.999c-0.026,0.519,0.227,0.872,0.653,0.866
	C137.234,38.999,137.457,38.865,137.604,38.654 M117.188,44.651c-0.217-0.67-0.655-1.209-1.191-1.209
	c-0.478,0-0.963,0.577-0.845,1.069c0.164,0.676,0.856,0.956,1.531,0.956C117.11,45.468,117.335,45.106,117.188,44.651
	 M107.58,45.146c-0.28-0.135-0.791,0.6-1.908,1.393c-1.122,0.797-2.792,1.774-4.62,1.72c-0.752-0.022-1.465-0.234-1.695-0.903
	c-0.25-0.726,0.21-0.61,0.744-0.83c0.623-0.258,1.213-0.745,1.573-1.155c0.495-0.564,0.706-1.24,0.555-1.807
	c-0.144-0.532-0.733-1.018-1.31-1.04c-0.644-0.025-1.27,0.24-1.807,0.68c-1.097,0.9-1.816,2.525-1.536,3.871
	c0.172,0.822,0.621,1.59,1.682,1.973c0.581,0.209,1.344,0.267,1.862,0.241c1.223-0.061,2.333-0.446,3.263-0.918
	c1.025-0.519,1.56-0.979,2.016-1.374c0.465-0.4,0.79-0.752,1.039-1.102C107.659,45.583,107.856,45.277,107.58,45.146
	 M100.536,43.592c0.198-0.06,0.556-0.064,0.614,0.217c0.086,0.416-0.329,0.915-0.952,1.504c-0.475,0.447-1.083,0.806-1.083,0.806
	C99.087,44.755,99.9,43.785,100.536,43.592 M59.232,48.734c-0.351-0.04-0.478-0.42-0.376-1.016c0.117-0.68,0.269-1.16,0.349-1.85
	c0.058-0.503-0.045-0.869-0.249-1.358c-0.232-0.562-0.005-0.926,0.47-1.039c0.422-0.102,0.721,0.202,0.878,0.657
	c0.093,0.268,0.129,0.787,0.287,0.822c0.131,0.03,0.278-0.135,0.473-0.333c0.724-0.735,1.307-1.336,2.572-1.314
	c0.719,0.013,2.571,0.584,2.26,1.246c-0.182,0.389-0.791,0.475-1.225,0.285c-0.488-0.211-0.695-0.304-1.115-0.304
	c-0.774,0-1.569,0.581-2.372,1.688c-0.408,0.562-0.727,1.21-0.945,1.637C59.93,48.457,59.63,48.783,59.232,48.734 M101.255,40.36
	c-0.551-0.074-1.186-0.059-2.081-0.045c-0.708,0.011-1.071,0.056-1.608,0.063c-0.459,0.064-0.465-0.297-0.428-0.59
	c0.077-0.6,0.327-1.36-0.287-1.871c-0.347-0.291-0.755-0.294-1.023-0.038c-0.334,0.319-0.168,0.725-0.279,1.144
	c-0.106,0.408-0.309,1.171-0.485,1.546c0,0-0.888,0.117-1.265,0.144c-1.073,0.072-1.833,0.167-2.958,0.191
	c-1.802,0.037-2.858-0.214-2.871,0.413c-0.014,0.646,0.404,1.141,1.07,1.175c0.678,0.034,1.706-0.082,3.131-0.313
	c0.784-0.127,1.871-0.26,2.454-0.342c-0.35,1.352-1.147,2.946-2.073,3.997c-0.466,0.527-1.188,1.112-1.913,1.281
	c-0.478,0.109-1.321,0.157-1.968-0.35c-0.363-0.283-0.63-0.62-0.774-1.117c-0.14-0.48-0.06-1.108-0.247-1.587
	c-0.221-0.562-0.738-0.963-1.192-1.173c-0.346-0.16-0.663-0.22-0.954-0.204c-1.059,0.053-2.028,1.011-2.492,1.752
	c-0.083,0.132-0.175,0.282-0.255,0.441c-0.491,0.427-1.201,1.021-1.836,1.465c-0.33,0.229-0.704,0.529-0.973,0.618
	c-0.194,0.066-0.223-0.216-0.24-0.406c-0.084-0.941-0.541-2.726-1.457-3.407c-0.407-0.304-0.758-0.336-1.03-0.336
	c-0.974,0-1.4,0.58-1.936,0.775c-0.655,0.236-1.432-0.013-2.152-0.046c-0.702-0.035-1.419-0.081-2.122-0.129
	c-0.908-0.062-1.124-0.357-2.045-0.457c-0.431-0.046-0.969-0.005-1.153,0.565c-0.285,0.88-1.631,1.71-1.367,3.38
	c0.162,1.021,0.985,1.648,1.721,1.696c0.407,0.026,0.851-0.037,1.279-0.248c1.128-0.556,1.355-1.929,1.609-2.927
	c0.14-0.551,0.588-0.715,1.104-0.812c0.758-0.142,2.026-0.203,2.146-0.115c0.143,0.103,0.071,0.282-0.02,0.439
	c-0.254,0.434-0.46,0.945-0.463,1.521c-0.005,0.562,0.266,1.088,0.617,1.337c0.464,0.328,0.841,0.351,1.152,0.344
	c0.677-0.014,1.352-0.473,1.884-0.907c0.233-0.188,0.383-0.369,0.521-0.308c0.114,0.048,0.131,0.194,0.143,0.42
	c0.015,0.3,0.009,0.608-0.005,0.919c-1.749,1.161-3.157,1.997-4.51,3.054c-0.754,0.589-1.487,1.323-1.78,1.668
	c-0.652,0.769-1.204,1.758-1.25,2.856c-0.025,0.612,0.161,1.452,0.682,1.958c0.393,0.381,0.983,0.588,1.51,0.612
	c0.583,0.027,1.165-0.133,1.648-0.365c2.039-0.977,3.381-3.362,4.172-5.38c0.291-0.744,0.644-1.966,0.875-3.221
	c0.092-0.502,0.166-0.772,0.342-1.022c0.229-0.326,0.653-0.712,1.043-0.979c0.374-0.256,0.684-0.52,0.991-0.713
	c0.152-0.096,0.245-0.155,0.323-0.105c0.093,0.062,0.067,0.225,0.106,0.481c0.08,0.522,0.333,1.007,0.85,1.351
	c0.633,0.422,1.431,0.237,1.901,0.033c0.358-0.156,0.872-0.546,1.221-0.839c0.257-0.215,0.542-0.398,0.708-0.408
	c0.454-0.025,0.591,0.515,1.41,1.043c0.704,0.45,1.39,0.45,2.085,0.308c0.812-0.165,1.926-1.067,2.602-1.814
	c0.42-0.465,0.676-0.835,0.788-0.826c0.329,0.025-0.053,0.921-0.109,2.056c-0.082,1.631,0.258,3.067,1.045,4.144
	c0.143,0.194,0.657,0.819,0.824,0.667c0.123-0.112-0.267-0.586-0.433-1.068c-0.254-0.73-0.345-1.423-0.35-2.105
	c-0.005-0.993,0.095-1.826,0.385-3.131c0.321-1.462,0.72-3.149,1.193-4.285c0.32-0.768,0.917-0.785,1.518-0.879
	c0.518-0.081,1.162-0.149,1.779-0.211c0.715-0.074,1.497-0.174,2.165-0.216C102.401,40.889,101.772,40.43,101.255,40.36
	 M69.994,45.523c-0.051,0.374-0.17,0.755-0.235,0.931c-0.238,0.635-0.699,1.217-1.227,1.194c-1.021-0.041-0.586-1.658-0.494-1.922
	c0.227-0.648,0.479-0.725,0.803-0.739c0.209-0.009,0.858,0.044,1.14-0.052C69.982,44.936,70.05,45.118,69.994,45.523 M76.926,53.369
	c-0.691,1.686-2.417,4.281-4.018,4.281c-0.668,0-0.955-0.506-0.968-1.226c-0.037-2.028,1.963-3.996,3.571-5.179
	c0.502-0.369,1.015-0.718,1.518-1.086c0.305-0.224,0.644-0.447,0.986-0.694C77.805,50.867,77.38,52.261,76.926,53.369
	 M78.188,44.322c0,0.499-0.36,1.085-0.666,1.498c-0.451,0.608-1.131,1.183-1.722,1.183c-0.297,0-0.383-0.311-0.371-0.442
	c0.039-0.434,0.166-0.919,0.772-1.654c0.234-0.283,1.096-1.085,1.541-1.085C78.062,43.821,78.188,44.033,78.188,44.322
	 M86.067,45.892c-0.336,0.612-0.581,0.875-1.037,1.259c-0.302,0.255-0.644,0.45-1,0.337c-0.394-0.124-0.244-0.946-0.103-1.363
	c0.249-0.738,0.636-1.308,0.962-1.656c0.572-0.61,0.959-0.637,1.146-0.508C86.508,44.287,86.438,45.216,86.067,45.892
	 M57.174,43.631c-1.156-0.391-2.063,0.008-3.115,0.745c-0.503,0.354-0.938,0.868-1.249,0.778c-0.314-0.09-0.244-0.924-0.914-1.064
	c-0.53-0.112-0.933,0.192-1.284,0.431c-0.479,0.325-1.008,0.768-1.515,1.172c-0.197,0.156-0.382,0.311-0.616,0.473
	c-0.375,0.261-0.929,0.632-1.437,0.648c-0.515,0.018-0.769-0.914-0.936-1.279c-0.214-0.466-0.357-0.988-0.679-1.408
	c-0.692-0.903-1.738-1.163-2.937-1.292c-1.162-0.126-2.265-0.05-3.384,0.081c-0.941,0.109-1.53,0.216-2.522,0.44
	c-0.469,0.107-0.679,0.148-0.819,0.071c-0.227-0.124-0.092-0.603-0.029-0.977c0.299-1.768,0.886-3.503,1.603-5.308
	c0.181-0.455,0.413-0.898,0.584-1.384c0.199-0.568,0.218-1.159-0.52-1.188c-0.62-0.024-0.878,0.562-1.108,1.017
	c-0.595,1.178-1.002,2.468-1.361,3.762c-0.342,1.234-0.642,2.532-0.85,3.815c-0.039,0.24-0.133,0.718-0.133,0.718
	c-0.538,0.224-1.699,0.47-2.477,0.681c-0.856,0.231-1.659,0.438-2.48,0.702c-0.491,0.158-0.93,0.279-1.473,0.508
	c-0.025,0.012-0.053,0.024-0.08,0.036c0.068-0.359,0.134-0.719,0.198-1.079c0.201-1.151,0.55-3.643,0.645-4.39
	c0.167-1.319,0.34-3.494-1.048-4.44c-0.338-0.229-0.772-0.225-0.948,0.104c-0.223,0.414,0.082,0.907,0.272,1.33
	c0.289,0.638,0.209,1.312,0.187,1.948c-0.062,1.744-0.269,3.438-0.571,5.12c-0.28,1.559-0.551,3.137-0.88,4.677
	c-0.174,0.816-0.4,1.61-0.65,2.396c-0.276,0.865-0.373,1.55,0.453,1.665c0.82,0.115,0.925-0.686,1.041-1.291
	c0.135-0.73,0.301-1.44,0.474-2.157c0.191-0.794,0.372-1.605,0.542-2.429c0.164,0.107,0.348,0.176,0.516,0.156
	c0.579-0.063,1.395-0.492,2.245-0.825c1.076-0.421,2.528-0.854,3.811-1.122c-0.148,1.743-0.19,3.263-0.04,4.89
	c0.087,0.941,0.268,1.854,0.611,2.779c0.144,0.39,0.308,0.782,0.523,1.149c0.085,0.145,0.398,0.648,0.589,0.648
	c0.319,0,0.12-0.485-0.036-1.204c-0.581-2.686-0.491-5.103-0.357-6.813c0.054-0.679,0.118-1.499,0.415-1.751
	c0.191-0.161,0.837-0.3,1.192-0.388c1.332-0.326,3.181-0.57,3.897-0.567c0.9,0.003,1.198,0.082,0.83,0.547
	c-0.56,0.708-0.984,1.58-0.886,2.521c0.128,1.231,1.142,1.734,2.277,1.396c0.626-0.187,1.208-0.592,1.708-1.026
	c0.212-0.185,0.412-0.352,0.588-0.366c0.258-0.02,0.386,0.181,0.581,0.344c0.54,0.453,0.821,0.592,1.325,0.591
	c0.667-0.001,1.343-0.317,1.962-0.773c0.119-0.088,0.354-0.289,0.569-0.476c0.147-0.12,0.298-0.255,0.442-0.39
	c0.001-0.001,0.004-0.004,0.004-0.004l0,0c0.144-0.136,0.28-0.27,0.392-0.384c0.292-0.295,0.835-0.77,0.997-0.722
	c0.216,0.062,0.069,0.454-0.01,0.792c-0.078,0.332-0.338,0.96-0.393,1.313c-0.083,0.539,0.009,0.921,0.442,1.012
	c0.741,0.156,1.258-1.085,1.715-1.753c0.417-0.61,1.169-1.41,1.879-1.79c0.387-0.207,0.803-0.415,1.287-0.384
	c0.715,0.046,0.676,0.862,1.363,0.76C58.712,45.258,58.008,43.913,57.174,43.631 M43.621,46.9c-0.47,0.387-1.253,0.85-1.566,0.652
	c-0.328-0.207-0.158-0.941,0.007-1.384c0.177-0.475,0.39-0.792,0.685-1.128c0.235-0.267,0.572-0.46,0.887-0.481
	c0.398-0.025,0.751,0.158,0.784,0.597C44.471,45.841,44.097,46.51,43.621,46.9 M199.757,26.179c3.941-1.507,4.646-4.877,4.734-6.88
	c0.214-4.744-3.473-6.352-6.483-7.726c-2.156-0.983-3.797-1.865-3.713-3.735c0.082-1.822,1.57-3.056,4.394-2.924
	c0.97,0.044,1.948,0.205,2.896,0.432c0.495,0.118,1.072,0.322,1.397,0.125c0.248-0.15,0.323-0.497,0.356-0.85l0.196-1.845
	c0.057-0.497,0.073-0.797-0.072-1.05c-0.188-0.33-0.617-0.408-0.979-0.475c-1.146-0.216-2.325-0.365-3.385-0.414
	c-6.097-0.282-9.814,2.701-10.02,7.252c-0.193,4.299,2.512,5.948,5.179,7.184c2.556,1.184,5.082,1.882,5.082,4.387
	c0,2.804-2.407,3.306-4.666,3.221c-1.385-0.052-2.808-0.294-4.195-0.813c-0.474-0.177-0.771-0.302-1.037-0.183
	c-0.326,0.146-0.352,0.568-0.303,0.934c0.097,0.729,0.175,1.492,0.638,2.314c0.688,1.224,2.272,1.791,4.92,1.822
	C196.691,26.979,198.384,26.705,199.757,26.179"/>
</svg>
